<svg xmlns="http://www.w3.org/2000/svg" width="800" height="500" viewBox="0 0 800 500" role="img" aria-label="Illustrated print dialog showing Save as PDF and All pages"><rect width="800" height="500" rx="24" fill="#fffcf9"/><g font-family="Arial,sans-serif" fill="#332c28"><text x="30" y="40" font-size="13" fill="#a8998e">ILLUSTRATION • YOUR PRINT DIALOG MAY DIFFER</text><text x="30" y="82" font-size="26" font-weight="bold">2. Save ALL pages as a PDF</text><rect x="30" y="110" width="300" height="350" rx="16" fill="#f2edea"/><rect x="65" y="139" width="230" height="285" fill="white"/><text x="84" y="176" font-size="17">Detailed month report</text><path d="M84 203H277M84 224H277M84 245H277M84 266H277M84 287H277M84 308H277M84 329H277M84 350H277M84 371H277" stroke="#ddd" stroke-width="7"/><rect x="355" y="110" width="415" height="350" rx="16" fill="white" stroke="#e2dad5"/><text x="380" y="159" font-size="16">Destination</text><rect x="379" y="175" width="365" height="53" rx="9" fill="#fff0f3" stroke="#e85d70" stroke-width="2"/><text x="397" y="209" font-size="21" font-weight="bold">Save as PDF</text><text x="380" y="264" font-size="16">Pages</text><rect x="379" y="280" width="365" height="53" rx="9" fill="#e8f5ee" stroke="#5fa37e" stroke-width="2"/><text x="397" y="314" font-size="21" font-weight="bold">All</text><text x="380" y="373" font-size="16">Include header, session notes,</text><text x="380" y="398" font-size="16">and the final category totals row.</text></g></svg>